<svg width="20" height="20" viewBox="0 0 20 20" fill="none" xmlns="http://www.w3.org/2000/svg">
<path d="M14.7614 5.20568C14.6667 5.20568 14.5759 5.16805 14.5089 5.10107C14.4419 5.0341 14.4043 4.94326 14.4043 4.84854C14.4043 4.75382 14.4419 4.66298 14.5089 4.596C14.5759 4.52902 14.6667 4.49139 14.7614 4.49139M14.7614 5.20568C14.8562 5.20568 14.947 5.16805 15.014 5.10107C15.081 5.0341 15.1186 4.94326 15.1186 4.84854C15.1186 4.75382 15.081 4.66298 15.014 4.596C14.947 4.52902 14.8562 4.49139 14.7614 4.49139" stroke="black" stroke-linecap="round" stroke-linejoin="round"/>
<path d="M1.22573 4.90142C1.22573 3.92656 1.61299 2.99163 2.30232 2.3023C2.99165 1.61297 3.92659 1.22571 4.90145 1.22571H14.7043C15.187 1.22571 15.665 1.32078 16.1109 1.50551C16.5569 1.69023 16.9621 1.96098 17.3034 2.3023C17.6447 2.64362 17.9155 3.04883 18.1002 3.49479C18.2849 3.94075 18.38 4.41872 18.38 4.90142V14.7043C18.38 15.6791 17.9928 16.6141 17.3034 17.3034C16.6141 17.9927 15.6792 18.38 14.7043 18.38H4.90002C3.92516 18.38 2.99023 17.9927 2.3009 17.3034C1.61157 16.6141 1.2243 15.6791 1.2243 14.7043V4.89999L1.22573 4.90142Z" stroke="black" stroke-linecap="round" stroke-linejoin="round"/>
<path d="M6.16003 9.80283C6.16003 10.2812 6.25426 10.7549 6.43733 11.1969C6.6204 11.6389 6.88873 12.0404 7.227 12.3787C7.56527 12.717 7.96686 12.9853 8.40883 13.1684C8.8508 13.3515 9.3245 13.4457 9.80289 13.4457C10.2813 13.4457 10.755 13.3515 11.197 13.1684C11.6389 12.9853 12.0405 12.717 12.3788 12.3787C12.7171 12.0404 12.9854 11.6389 13.1685 11.1969C13.3515 10.7549 13.4457 10.2812 13.4457 9.80283C13.4457 8.83668 13.0619 7.91011 12.3788 7.22694C11.6956 6.54377 10.769 6.15997 9.80289 6.15997C8.83675 6.15997 7.91017 6.54377 7.227 7.22694C6.54383 7.91011 6.16003 8.83668 6.16003 9.80283Z" stroke="black" stroke-linecap="round" stroke-linejoin="round"/>
</svg>
