<svg width="24" height="24" viewBox="0 0 24 24" fill="none" xmlns="http://www.w3.org/2000/svg">
<g id="circum:linkedin">
<path id="Vector" d="M18.44 3.06H5.56C4.89752 3.06184 4.26271 3.32583 3.79427 3.79427C3.32583 4.26271 3.06184 4.89752 3.06 5.56V18.44C3.06184 19.1025 3.32583 19.7373 3.79427 20.2057C4.26271 20.6742 4.89752 20.9382 5.56 20.94H18.44C19.103 20.94 19.7389 20.6766 20.2078 20.2078C20.6766 19.7389 20.94 19.103 20.94 18.44V5.56C20.94 4.89696 20.6766 4.26107 20.2078 3.79223C19.7389 3.32339 19.103 3.06 18.44 3.06ZM19.94 18.44C19.9374 18.837 19.7785 19.217 19.4978 19.4978C19.217 19.7785 18.837 19.9374 18.44 19.94H5.56C5.16298 19.9374 4.78297 19.7785 4.50223 19.4978C4.2215 19.217 4.06262 18.837 4.06 18.44V5.56C4.06262 5.16298 4.2215 4.78297 4.50223 4.50223C4.78297 4.2215 5.16298 4.06262 5.56 4.06H18.44C18.837 4.06262 19.217 4.2215 19.4978 4.50223C19.7785 4.78297 19.9374 5.16298 19.94 5.56V18.44Z" fill="black"/>
<path id="Vector_2" d="M6.37598 10.748C6.37598 10.4828 6.48133 10.2284 6.66887 10.0409C6.85641 9.85334 7.11076 9.74799 7.37598 9.74799C7.64119 9.74799 7.89555 9.85334 8.08308 10.0409C8.27062 10.2284 8.37598 10.4828 8.37598 10.748V17.248C8.37598 17.5132 8.27062 17.7676 8.08308 17.9551C7.89555 18.1426 7.64119 18.248 7.37598 18.248C7.11076 18.248 6.85641 18.1426 6.66887 17.9551C6.48133 17.7676 6.37598 17.5132 6.37598 17.248V10.748Z" fill="black"/>
<path id="Vector_3" d="M7.37598 7.74402C7.92826 7.74402 8.37598 7.2963 8.37598 6.74402C8.37598 6.19173 7.92826 5.74402 7.37598 5.74402C6.82369 5.74402 6.37598 6.19173 6.37598 6.74402C6.37598 7.2963 6.82369 7.74402 7.37598 7.74402Z" fill="black"/>
<path id="Vector_4" d="M17.62 13.37V17.25C17.62 17.5152 17.5147 17.7696 17.3271 17.9571C17.1396 18.1446 16.8852 18.25 16.62 18.25C16.3548 18.25 16.1004 18.1446 15.9129 17.9571C15.7254 17.7696 15.62 17.5152 15.62 17.25V13.37C15.62 12.9417 15.4499 12.5309 15.147 12.228C14.8441 11.9251 14.4333 11.755 14.005 11.755C13.5767 11.755 13.1659 11.9251 12.863 12.228C12.5602 12.5309 12.39 12.9417 12.39 13.37V17.25C12.39 17.5152 12.2847 17.7696 12.0971 17.9571C11.9096 18.1446 11.6552 18.25 11.39 18.25C11.1248 18.25 10.8704 18.1446 10.6829 17.9571C10.4954 17.7696 10.39 17.5152 10.39 17.25V10.75C10.3941 10.4861 10.5008 10.2341 10.6875 10.0474C10.8741 9.86079 11.1261 9.75411 11.39 9.74999C11.5594 9.74535 11.7269 9.78658 11.8747 9.86931C12.0226 9.95205 12.1454 10.0732 12.23 10.22C12.7799 9.90834 13.4019 9.74652 14.034 9.75071C14.666 9.7549 15.2858 9.92495 15.8315 10.2439C16.3772 10.5628 16.8296 11.0194 17.1435 11.568C17.4573 12.1166 17.6217 12.7379 17.62 13.37Z" fill="black"/>
</g>
</svg>
