<svg width="17" height="17" viewBox="0 0 17 17" fill="none" xmlns="http://www.w3.org/2000/svg">
<path d="M8.76562 1.32812C6.93457 1.33006 5.17906 2.0583 3.8843 3.35305C2.58955 4.64781 1.86131 6.40332 1.85938 8.23438V13.8125C1.85938 14.1647 1.9993 14.5026 2.24837 14.7516C2.49745 15.0007 2.83526 15.1406 3.1875 15.1406H8.76562C10.5973 15.1406 12.3539 14.413 13.6491 13.1178C14.9443 11.8227 15.6719 10.066 15.6719 8.23438C15.6719 6.40272 14.9443 4.64609 13.6491 3.35092C12.3539 2.05575 10.5973 1.32813 8.76562 1.32812ZM8.76562 13.5469H3.45312V8.23438C3.45312 7.18366 3.7647 6.15654 4.34844 5.28291C4.93219 4.40927 5.76189 3.72836 6.73262 3.32626C7.70335 2.92417 8.77152 2.81897 9.80204 3.02395C10.8326 3.22894 11.7792 3.7349 12.5221 4.47787C13.2651 5.22084 13.7711 6.16743 13.976 7.19796C14.181 8.22848 14.0758 9.29665 13.6737 10.2674C13.2716 11.2381 12.5907 12.0678 11.7171 12.6516C10.8435 13.2353 9.81634 13.5469 8.76562 13.5469ZM8.23438 8.5C8.23438 8.71014 8.17206 8.91557 8.05531 9.09029C7.93856 9.26502 7.77262 9.4012 7.57848 9.48162C7.38433 9.56204 7.1707 9.58308 6.96459 9.54208C6.75849 9.50109 6.56917 9.39989 6.42057 9.2513C6.27198 9.10271 6.17079 8.91339 6.12979 8.70728C6.08879 8.50118 6.10983 8.28755 6.19025 8.0934C6.27067 7.89925 6.40685 7.73331 6.58158 7.61656C6.75631 7.49981 6.96173 7.4375 7.17188 7.4375C7.45367 7.4375 7.72392 7.54944 7.92318 7.7487C8.12243 7.94796 8.23438 8.21821 8.23438 8.5ZM11.4219 8.5C11.4219 8.71014 11.3596 8.91557 11.2428 9.09029C11.1261 9.26502 10.9601 9.4012 10.766 9.48162C10.5718 9.56204 10.3582 9.58308 10.1521 9.54208C9.94599 9.50109 9.75667 9.39989 9.60807 9.2513C9.45948 9.10271 9.35829 8.91339 9.31729 8.70728C9.27629 8.50118 9.29733 8.28755 9.37775 8.0934C9.45817 7.89925 9.59435 7.73331 9.76908 7.61656C9.94381 7.49981 10.1492 7.4375 10.3594 7.4375C10.6412 7.4375 10.9114 7.54944 11.1107 7.7487C11.3099 7.94796 11.4219 8.21821 11.4219 8.5Z" fill="white"/>
</svg>
