<svg width="426" height="426" viewBox="0 0 426 426" fill="none" xmlns="http://www.w3.org/2000/svg">
<g clip-path="url(#clip0_1_4427)">
<rect width="425.197" height="425.197" fill="white"/>
<circle cx="23" cy="-16" r="35.5" fill="#FFA8A8" stroke="#FC6B6B" stroke-width="5"/>
<circle cx="23" cy="-16" r="24.5" fill="#FFA8A8" stroke="#FC6B6B" stroke-width="5"/>
<circle cx="99" cy="-16" r="35.5" fill="#FFA8A8" stroke="#FC6B6B" stroke-width="5"/>
<circle cx="99" cy="-16" r="24.5" fill="#FFA8A8" stroke="#FC6B6B" stroke-width="5"/>
<circle cx="175" cy="-16" r="35.5" fill="#FFA8A8" stroke="#FC6B6B" stroke-width="5"/>
<circle cx="175" cy="-16" r="24.5" fill="#FFA8A8" stroke="#FC6B6B" stroke-width="5"/>
<circle cx="251" cy="-16" r="35.5" fill="#FFA8A8" stroke="#FC6B6B" stroke-width="5"/>
<circle cx="251" cy="-16" r="24.5" fill="#FFA8A8" stroke="#FC6B6B" stroke-width="5"/>
<circle cx="327" cy="-16" r="35.5" fill="#FFA8A8" stroke="#FC6B6B" stroke-width="5"/>
<circle cx="327" cy="-16" r="24.5" fill="#FFA8A8" stroke="#FC6B6B" stroke-width="5"/>
<circle cx="403" cy="-16" r="35.5" fill="#FFA8A8" stroke="#FC6B6B" stroke-width="5"/>
<circle cx="403" cy="-16" r="24.5" fill="#FFA8A8" stroke="#FC6B6B" stroke-width="5"/>
<circle cx="-15" cy="6" r="35.5" fill="#FFA8A8" stroke="#FC6B6B" stroke-width="5"/>
<circle cx="-15" cy="6" r="24.5" fill="#FFA8A8" stroke="#FC6B6B" stroke-width="5"/>
<circle cx="-15" cy="6" r="13.5" fill="#FFA8A8" stroke="#FC6B6B" stroke-width="5"/>
<circle cx="61" cy="6" r="35.5" fill="#FFA8A8" stroke="#FC6B6B" stroke-width="5"/>
<circle cx="61" cy="6" r="24.5" fill="#FFA8A8" stroke="#FC6B6B" stroke-width="5"/>
<circle cx="61" cy="6" r="13.5" fill="#FFA8A8" stroke="#FC6B6B" stroke-width="5"/>
<circle cx="137" cy="6" r="35.5" fill="#FFA8A8" stroke="#FC6B6B" stroke-width="5"/>
<circle cx="137" cy="6" r="24.5" fill="#FFA8A8" stroke="#FC6B6B" stroke-width="5"/>
<circle cx="137" cy="6" r="13.5" fill="#FFA8A8" stroke="#FC6B6B" stroke-width="5"/>
<circle cx="213" cy="6" r="35.5" fill="#FFA8A8" stroke="#FC6B6B" stroke-width="5"/>
<circle cx="213" cy="6" r="24.5" fill="#FFA8A8" stroke="#FC6B6B" stroke-width="5"/>
<circle cx="213" cy="6" r="13.5" fill="#FFA8A8" stroke="#FC6B6B" stroke-width="5"/>
<circle cx="289" cy="6" r="35.5" fill="#FFA8A8" stroke="#FC6B6B" stroke-width="5"/>
<circle cx="289" cy="6" r="24.5" fill="#FFA8A8" stroke="#FC6B6B" stroke-width="5"/>
<circle cx="289" cy="6" r="13.5" fill="#FFA8A8" stroke="#FC6B6B" stroke-width="5"/>
<circle cx="365" cy="6" r="35.5" fill="#FFA8A8" stroke="#FC6B6B" stroke-width="5"/>
<circle cx="365" cy="6" r="24.5" fill="#FFA8A8" stroke="#FC6B6B" stroke-width="5"/>
<circle cx="365" cy="6" r="13.5" fill="#FFA8A8" stroke="#FC6B6B" stroke-width="5"/>
<circle cx="441" cy="6" r="35.5" fill="#FFA8A8" stroke="#FC6B6B" stroke-width="5"/>
<circle cx="441" cy="6" r="24.5" fill="#FFA8A8" stroke="#FC6B6B" stroke-width="5"/>
<circle cx="441" cy="6" r="13.5" fill="#FFA8A8" stroke="#FC6B6B" stroke-width="5"/>
<circle cx="23" cy="28" r="35.5" fill="#FFA8A8" stroke="#FC6B6B" stroke-width="5"/>
<circle cx="23" cy="28" r="24.5" fill="#FFA8A8" stroke="#FC6B6B" stroke-width="5"/>
<circle cx="23" cy="28" r="13.5" fill="#FFA8A8" stroke="#FC6B6B" stroke-width="5"/>
<circle cx="99" cy="28" r="35.5" fill="#FFA8A8" stroke="#FC6B6B" stroke-width="5"/>
<circle cx="99" cy="28" r="24.5" fill="#FFA8A8" stroke="#FC6B6B" stroke-width="5"/>
<circle cx="99" cy="28" r="13.5" fill="#FFA8A8" stroke="#FC6B6B" stroke-width="5"/>
<circle cx="175" cy="28" r="35.5" fill="#FFA8A8" stroke="#FC6B6B" stroke-width="5"/>
<circle cx="175" cy="28" r="24.5" fill="#FFA8A8" stroke="#FC6B6B" stroke-width="5"/>
<circle cx="175" cy="28" r="13.5" fill="#FFA8A8" stroke="#FC6B6B" stroke-width="5"/>
<circle cx="251" cy="28" r="35.5" fill="#FFA8A8" stroke="#FC6B6B" stroke-width="5"/>
<circle cx="251" cy="28" r="24.5" fill="#FFA8A8" stroke="#FC6B6B" stroke-width="5"/>
<circle cx="251" cy="28" r="13.5" fill="#FFA8A8" stroke="#FC6B6B" stroke-width="5"/>
<circle cx="327" cy="28" r="35.5" fill="#FFA8A8" stroke="#FC6B6B" stroke-width="5"/>
<circle cx="327" cy="28" r="24.5" fill="#FFA8A8" stroke="#FC6B6B" stroke-width="5"/>
<circle cx="327" cy="28" r="13.5" fill="#FFA8A8" stroke="#FC6B6B" stroke-width="5"/>
<circle cx="403" cy="28" r="35.5" fill="#FFA8A8" stroke="#FC6B6B" stroke-width="5"/>
<circle cx="403" cy="28" r="24.5" fill="#FFA8A8" stroke="#FC6B6B" stroke-width="5"/>
<circle cx="403" cy="28" r="13.5" fill="#FFA8A8" stroke="#FC6B6B" stroke-width="5"/>
<circle cx="-15" cy="50" r="35.5" fill="#FFA8A8" stroke="#FC6B6B" stroke-width="5"/>
<circle cx="-15" cy="50" r="24.5" fill="#FFA8A8" stroke="#FC6B6B" stroke-width="5"/>
<circle cx="-15" cy="50" r="13.5" fill="#FFA8A8" stroke="#FC6B6B" stroke-width="5"/>
<circle cx="137" cy="50" r="35.5" fill="#FFA8A8" stroke="#FC6B6B" stroke-width="5"/>
<circle cx="137" cy="50" r="24.5" fill="#FFA8A8" stroke="#FC6B6B" stroke-width="5"/>
<circle cx="137" cy="50" r="13.5" fill="#FFA8A8" stroke="#FC6B6B" stroke-width="5"/>
<circle cx="289" cy="50" r="35.5" fill="#FFA8A8" stroke="#FC6B6B" stroke-width="5"/>
<circle cx="289" cy="50" r="24.5" fill="#FFA8A8" stroke="#FC6B6B" stroke-width="5"/>
<circle cx="289" cy="50" r="13.5" fill="#FFA8A8" stroke="#FC6B6B" stroke-width="5"/>
<path d="M96.5 50C96.5 69.6061 80.6061 85.5 61 85.5C41.3939 85.5 25.5 69.6061 25.5 50C25.5 30.3939 41.3939 14.5 61 14.5C80.6061 14.5 96.5 30.3939 96.5 50ZM85.5 50C85.5 63.531 74.531 74.5 61 74.5C47.469 74.5 36.5 63.531 36.5 50C36.5 36.469 47.469 25.5 61 25.5C74.531 25.5 85.5 36.469 85.5 50ZM61 79.5C77.2924 79.5 90.5 66.2924 90.5 50C90.5 33.7076 77.2924 20.5 61 20.5C44.7076 20.5 31.5 33.7076 31.5 50C31.5 66.2924 44.7076 79.5 61 79.5ZM74.5 50C74.5 57.4558 68.4558 63.5 61 63.5C53.5442 63.5 47.5 57.4558 47.5 50C47.5 42.5442 53.5442 36.5 61 36.5C68.4558 36.5 74.5 42.5442 74.5 50ZM61 68.5C71.2173 68.5 79.5 60.2173 79.5 50C79.5 39.7827 71.2173 31.5 61 31.5C50.7827 31.5 42.5 39.7827 42.5 50C42.5 60.2173 50.7827 68.5 61 68.5ZM248.5 50C248.5 69.6061 232.606 85.5 213 85.5C193.394 85.5 177.5 69.6061 177.5 50C177.5 30.3939 193.394 14.5 213 14.5C232.606 14.5 248.5 30.3939 248.5 50ZM237.5 50C237.5 63.531 226.531 74.5 213 74.5C199.469 74.5 188.5 63.531 188.5 50C188.5 36.469 199.469 25.5 213 25.5C226.531 25.5 237.5 36.469 237.5 50ZM213 79.5C229.292 79.5 242.5 66.2924 242.5 50C242.5 33.7076 229.292 20.5 213 20.5C196.708 20.5 183.5 33.7076 183.5 50C183.5 66.2924 196.708 79.5 213 79.5ZM226.5 50C226.5 57.4558 220.456 63.5 213 63.5C205.544 63.5 199.5 57.4558 199.5 50C199.5 42.5442 205.544 36.5 213 36.5C220.456 36.5 226.5 42.5442 226.5 50ZM213 68.5C223.217 68.5 231.5 60.2173 231.5 50C231.5 39.7827 223.217 31.5 213 31.5C202.783 31.5 194.5 39.7827 194.5 50C194.5 60.2173 202.783 68.5 213 68.5ZM400.5 50C400.5 69.6061 384.606 85.5 365 85.5C345.394 85.5 329.5 69.6061 329.5 50C329.5 30.3939 345.394 14.5 365 14.5C384.606 14.5 400.5 30.3939 400.5 50ZM389.5 50C389.5 63.531 378.531 74.5 365 74.5C351.469 74.5 340.5 63.531 340.5 50C340.5 36.469 351.469 25.5 365 25.5C378.531 25.5 389.5 36.469 389.5 50ZM365 79.5C381.292 79.5 394.5 66.2924 394.5 50C394.5 33.7076 381.292 20.5 365 20.5C348.708 20.5 335.5 33.7076 335.5 50C335.5 66.2924 348.708 79.5 365 79.5ZM378.5 50C378.5 57.4558 372.456 63.5 365 63.5C357.544 63.5 351.5 57.4558 351.5 50C351.5 42.5442 357.544 36.5 365 36.5C372.456 36.5 378.5 42.5442 378.5 50ZM365 68.5C375.217 68.5 383.5 60.2173 383.5 50C383.5 39.7827 375.217 31.5 365 31.5C354.783 31.5 346.5 39.7827 346.5 50C346.5 60.2173 354.783 68.5 365 68.5Z" fill="#FFA8A8" stroke="#FC6B6B" stroke-width="5"/>
<circle cx="441" cy="50" r="35.5" fill="#FFA8A8" stroke="#FC6B6B" stroke-width="5"/>
<circle cx="441" cy="50" r="24.5" fill="#FFA8A8" stroke="#FC6B6B" stroke-width="5"/>
<circle cx="441" cy="50" r="13.5" fill="#FFA8A8" stroke="#FC6B6B" stroke-width="5"/>
<circle cx="23" cy="71" r="35.5" fill="#FFA8A8" stroke="#FC6B6B" stroke-width="5"/>
<circle cx="23" cy="71" r="24.5" fill="#FFA8A8" stroke="#FC6B6B" stroke-width="5"/>
<circle cx="23" cy="71" r="13.5" fill="#FFA8A8" stroke="#FC6B6B" stroke-width="5"/>
<circle cx="99" cy="71" r="35.5" fill="#FFA8A8" stroke="#FC6B6B" stroke-width="5"/>
<circle cx="99" cy="71" r="24.5" fill="#FFA8A8" stroke="#FC6B6B" stroke-width="5"/>
<circle cx="99" cy="71" r="13.5" fill="#FFA8A8" stroke="#FC6B6B" stroke-width="5"/>
<circle cx="175" cy="71" r="35.5" fill="#FFA8A8" stroke="#FC6B6B" stroke-width="5"/>
<circle cx="175" cy="71" r="24.5" fill="#FFA8A8" stroke="#FC6B6B" stroke-width="5"/>
<circle cx="175" cy="71" r="13.5" fill="#FFA8A8" stroke="#FC6B6B" stroke-width="5"/>
<circle cx="251" cy="71" r="35.5" fill="#FFA8A8" stroke="#FC6B6B" stroke-width="5"/>
<circle cx="251" cy="71" r="24.5" fill="#FFA8A8" stroke="#FC6B6B" stroke-width="5"/>
<circle cx="251" cy="71" r="13.5" fill="#FFA8A8" stroke="#FC6B6B" stroke-width="5"/>
<circle cx="327" cy="71" r="35.5" fill="#FFA8A8" stroke="#FC6B6B" stroke-width="5"/>
<circle cx="327" cy="71" r="24.5" fill="#FFA8A8" stroke="#FC6B6B" stroke-width="5"/>
<circle cx="327" cy="71" r="13.5" fill="#FFA8A8" stroke="#FC6B6B" stroke-width="5"/>
<circle cx="403" cy="71" r="35.5" fill="#FFA8A8" stroke="#FC6B6B" stroke-width="5"/>
<circle cx="403" cy="71" r="24.5" fill="#FFA8A8" stroke="#FC6B6B" stroke-width="5"/>
<circle cx="403" cy="71" r="13.5" fill="#FFA8A8" stroke="#FC6B6B" stroke-width="5"/>
<circle cx="-15" cy="93" r="35.5" fill="#FFA8A8" stroke="#FC6B6B" stroke-width="5"/>
<circle cx="-15" cy="93" r="24.5" fill="#FFA8A8" stroke="#FC6B6B" stroke-width="5"/>
<circle cx="-15" cy="93" r="13.5" fill="#FFA8A8" stroke="#FC6B6B" stroke-width="5"/>
<circle cx="61" cy="93" r="35.5" fill="#FFA8A8" stroke="#FC6B6B" stroke-width="5"/>
<circle cx="61" cy="93" r="24.5" fill="#FFA8A8" stroke="#FC6B6B" stroke-width="5"/>
<circle cx="61" cy="93" r="13.5" fill="#FFA8A8" stroke="#FC6B6B" stroke-width="5"/>
<circle cx="137" cy="93" r="35.5" fill="#FFA8A8" stroke="#FC6B6B" stroke-width="5"/>
<circle cx="137" cy="93" r="24.5" fill="#FFA8A8" stroke="#FC6B6B" stroke-width="5"/>
<circle cx="137" cy="93" r="13.5" fill="#FFA8A8" stroke="#FC6B6B" stroke-width="5"/>
<circle cx="213" cy="93" r="35.5" fill="#FFA8A8" stroke="#FC6B6B" stroke-width="5"/>
<circle cx="213" cy="93" r="24.5" fill="#FFA8A8" stroke="#FC6B6B" stroke-width="5"/>
<circle cx="213" cy="93" r="13.5" fill="#FFA8A8" stroke="#FC6B6B" stroke-width="5"/>
<circle cx="289" cy="93" r="35.5" fill="#FFA8A8" stroke="#FC6B6B" stroke-width="5"/>
<circle cx="289" cy="93" r="24.5" fill="#FFA8A8" stroke="#FC6B6B" stroke-width="5"/>
<circle cx="289" cy="93" r="13.5" fill="#FFA8A8" stroke="#FC6B6B" stroke-width="5"/>
<circle cx="365" cy="93" r="35.5" fill="#FFA8A8" stroke="#FC6B6B" stroke-width="5"/>
<circle cx="365" cy="93" r="24.5" fill="#FFA8A8" stroke="#FC6B6B" stroke-width="5"/>
<circle cx="365" cy="93" r="13.5" fill="#FFA8A8" stroke="#FC6B6B" stroke-width="5"/>
<circle cx="441" cy="93" r="35.5" fill="#FFA8A8" stroke="#FC6B6B" stroke-width="5"/>
<circle cx="441" cy="93" r="24.5" fill="#FFA8A8" stroke="#FC6B6B" stroke-width="5"/>
<circle cx="441" cy="93" r="13.5" fill="#FFA8A8" stroke="#FC6B6B" stroke-width="5"/>
<circle cx="23" cy="115" r="35.5" fill="#FFA8A8" stroke="#FC6B6B" stroke-width="5"/>
<circle cx="23" cy="115" r="24.5" fill="#FFA8A8" stroke="#FC6B6B" stroke-width="5"/>
<circle cx="23" cy="115" r="13.5" fill="#FFA8A8" stroke="#FC6B6B" stroke-width="5"/>
<circle cx="99" cy="115" r="35.5" fill="#FFA8A8" stroke="#FC6B6B" stroke-width="5"/>
<circle cx="99" cy="115" r="24.5" fill="#FFA8A8" stroke="#FC6B6B" stroke-width="5"/>
<circle cx="99" cy="115" r="13.5" fill="#FFA8A8" stroke="#FC6B6B" stroke-width="5"/>
<circle cx="175" cy="115" r="35.5" fill="#FFA8A8" stroke="#FC6B6B" stroke-width="5"/>
<circle cx="175" cy="115" r="24.5" fill="#FFA8A8" stroke="#FC6B6B" stroke-width="5"/>
<circle cx="175" cy="115" r="13.5" fill="#FFA8A8" stroke="#FC6B6B" stroke-width="5"/>
<circle cx="251" cy="115" r="35.5" fill="#FFA8A8" stroke="#FC6B6B" stroke-width="5"/>
<circle cx="251" cy="115" r="24.5" fill="#FFA8A8" stroke="#FC6B6B" stroke-width="5"/>
<circle cx="251" cy="115" r="13.5" fill="#FFA8A8" stroke="#FC6B6B" stroke-width="5"/>
<circle cx="327" cy="115" r="35.5" fill="#FFA8A8" stroke="#FC6B6B" stroke-width="5"/>
<circle cx="327" cy="115" r="24.5" fill="#FFA8A8" stroke="#FC6B6B" stroke-width="5"/>
<circle cx="327" cy="115" r="13.5" fill="#FFA8A8" stroke="#FC6B6B" stroke-width="5"/>
<circle cx="403" cy="115" r="35.5" fill="#FFA8A8" stroke="#FC6B6B" stroke-width="5"/>
<circle cx="403" cy="115" r="24.5" fill="#FFA8A8" stroke="#FC6B6B" stroke-width="5"/>
<circle cx="403" cy="115" r="13.5" fill="#FFA8A8" stroke="#FC6B6B" stroke-width="5"/>
<circle cx="-15" cy="137" r="35.5" fill="#FFA8A8" stroke="#FC6B6B" stroke-width="5"/>
<circle cx="-15" cy="137" r="24.5" fill="#FFA8A8" stroke="#FC6B6B" stroke-width="5"/>
<circle cx="-15" cy="137" r="13.5" fill="#FFA8A8" stroke="#FC6B6B" stroke-width="5"/>
<circle cx="61" cy="137" r="35.5" fill="#FFA8A8" stroke="#FC6B6B" stroke-width="5"/>
<circle cx="61" cy="137" r="24.5" fill="#FFA8A8" stroke="#FC6B6B" stroke-width="5"/>
<circle cx="61" cy="137" r="13.5" fill="#FFA8A8" stroke="#FC6B6B" stroke-width="5"/>
<circle cx="213" cy="137" r="35.5" fill="#FFA8A8" stroke="#FC6B6B" stroke-width="5"/>
<circle cx="213" cy="137" r="24.5" fill="#FFA8A8" stroke="#FC6B6B" stroke-width="5"/>
<circle cx="213" cy="137" r="13.5" fill="#FFA8A8" stroke="#FC6B6B" stroke-width="5"/>
<path d="M172.5 137C172.5 156.606 156.606 172.5 137 172.5C117.394 172.5 101.5 156.606 101.5 137C101.5 117.394 117.394 101.5 137 101.5C156.606 101.5 172.5 117.394 172.5 137ZM161.5 137C161.5 150.531 150.531 161.5 137 161.5C123.469 161.5 112.5 150.531 112.5 137C112.5 123.469 123.469 112.5 137 112.5C150.531 112.5 161.5 123.469 161.5 137ZM137 166.5C153.292 166.5 166.5 153.292 166.5 137C166.5 120.708 153.292 107.5 137 107.5C120.708 107.5 107.5 120.708 107.5 137C107.5 153.292 120.708 166.5 137 166.5ZM150.5 137C150.5 144.456 144.456 150.5 137 150.5C129.544 150.5 123.5 144.456 123.5 137C123.5 129.544 129.544 123.5 137 123.5C144.456 123.5 150.5 129.544 150.5 137ZM137 155.5C147.217 155.5 155.5 147.217 155.5 137C155.5 126.783 147.217 118.5 137 118.5C126.783 118.5 118.5 126.783 118.5 137C118.5 147.217 126.783 155.5 137 155.5ZM324.5 137C324.5 156.606 308.606 172.5 289 172.5C269.394 172.5 253.5 156.606 253.5 137C253.5 117.394 269.394 101.5 289 101.5C308.606 101.5 324.5 117.394 324.5 137ZM313.5 137C313.5 150.531 302.531 161.5 289 161.5C275.469 161.5 264.5 150.531 264.5 137C264.5 123.469 275.469 112.5 289 112.5C302.531 112.5 313.5 123.469 313.5 137ZM289 166.5C305.292 166.5 318.5 153.292 318.5 137C318.5 120.708 305.292 107.5 289 107.5C272.708 107.5 259.5 120.708 259.5 137C259.5 153.292 272.708 166.5 289 166.5ZM302.5 137C302.5 144.456 296.456 150.5 289 150.5C281.544 150.5 275.5 144.456 275.5 137C275.5 129.544 281.544 123.5 289 123.5C296.456 123.5 302.5 129.544 302.5 137ZM289 155.5C299.217 155.5 307.5 147.217 307.5 137C307.5 126.783 299.217 118.5 289 118.5C278.783 118.5 270.5 126.783 270.5 137C270.5 147.217 278.783 155.5 289 155.5Z" fill="#FFA8A8" stroke="#FC6B6B" stroke-width="5"/>
<circle cx="365" cy="137" r="35.5" fill="#FFA8A8" stroke="#FC6B6B" stroke-width="5"/>
<circle cx="365" cy="137" r="24.5" fill="#FFA8A8" stroke="#FC6B6B" stroke-width="5"/>
<circle cx="365" cy="137" r="13.5" fill="#FFA8A8" stroke="#FC6B6B" stroke-width="5"/>
<circle cx="441" cy="137" r="35.5" fill="#FFA8A8" stroke="#FC6B6B" stroke-width="5"/>
<circle cx="441" cy="137" r="24.5" fill="#FFA8A8" stroke="#FC6B6B" stroke-width="5"/>
<circle cx="441" cy="137" r="13.5" fill="#FFA8A8" stroke="#FC6B6B" stroke-width="5"/>
<circle cx="23" cy="158" r="35.5" fill="#FFA8A8" stroke="#FC6B6B" stroke-width="5"/>
<circle cx="23" cy="158" r="24.5" fill="#FFA8A8" stroke="#FC6B6B" stroke-width="5"/>
<circle cx="23" cy="158" r="13.5" fill="#FFA8A8" stroke="#FC6B6B" stroke-width="5"/>
<circle cx="99" cy="158" r="35.5" fill="#FFA8A8" stroke="#FC6B6B" stroke-width="5"/>
<circle cx="99" cy="158" r="24.5" fill="#FFA8A8" stroke="#FC6B6B" stroke-width="5"/>
<circle cx="99" cy="158" r="13.5" fill="#FFA8A8" stroke="#FC6B6B" stroke-width="5"/>
<circle cx="175" cy="158" r="35.5" fill="#FFA8A8" stroke="#FC6B6B" stroke-width="5"/>
<circle cx="175" cy="158" r="24.5" fill="#FFA8A8" stroke="#FC6B6B" stroke-width="5"/>
<circle cx="175" cy="158" r="13.5" fill="#FFA8A8" stroke="#FC6B6B" stroke-width="5"/>
<circle cx="251" cy="158" r="35.5" fill="#FFA8A8" stroke="#FC6B6B" stroke-width="5"/>
<circle cx="251" cy="158" r="24.5" fill="#FFA8A8" stroke="#FC6B6B" stroke-width="5"/>
<circle cx="251" cy="158" r="13.5" fill="#FFA8A8" stroke="#FC6B6B" stroke-width="5"/>
<circle cx="327" cy="158" r="35.5" fill="#FFA8A8" stroke="#FC6B6B" stroke-width="5"/>
<circle cx="327" cy="158" r="24.5" fill="#FFA8A8" stroke="#FC6B6B" stroke-width="5"/>
<circle cx="327" cy="158" r="13.5" fill="#FFA8A8" stroke="#FC6B6B" stroke-width="5"/>
<circle cx="403" cy="158" r="35.5" fill="#FFA8A8" stroke="#FC6B6B" stroke-width="5"/>
<circle cx="403" cy="158" r="24.5" fill="#FFA8A8" stroke="#FC6B6B" stroke-width="5"/>
<circle cx="403" cy="158" r="13.5" fill="#FFA8A8" stroke="#FC6B6B" stroke-width="5"/>
<circle cx="-15" cy="180" r="35.5" fill="#FFA8A8" stroke="#FC6B6B" stroke-width="5"/>
<circle cx="-15" cy="180" r="24.5" fill="#FFA8A8" stroke="#FC6B6B" stroke-width="5"/>
<circle cx="-15" cy="180" r="13.5" fill="#FFA8A8" stroke="#FC6B6B" stroke-width="5"/>
<circle cx="61" cy="180" r="35.5" fill="#FFA8A8" stroke="#FC6B6B" stroke-width="5"/>
<circle cx="61" cy="180" r="24.5" fill="#FFA8A8" stroke="#FC6B6B" stroke-width="5"/>
<circle cx="61" cy="180" r="13.5" fill="#FFA8A8" stroke="#FC6B6B" stroke-width="5"/>
<circle cx="137" cy="180" r="35.5" fill="#FFA8A8" stroke="#FC6B6B" stroke-width="5"/>
<circle cx="137" cy="180" r="24.5" fill="#FFA8A8" stroke="#FC6B6B" stroke-width="5"/>
<circle cx="137" cy="180" r="13.5" fill="#FFA8A8" stroke="#FC6B6B" stroke-width="5"/>
<circle cx="213" cy="180" r="35.5" fill="#FFA8A8" stroke="#FC6B6B" stroke-width="5"/>
<circle cx="213" cy="180" r="24.5" fill="#FFA8A8" stroke="#FC6B6B" stroke-width="5"/>
<circle cx="213" cy="180" r="13.5" fill="#FFA8A8" stroke="#FC6B6B" stroke-width="5"/>
<circle cx="289" cy="180" r="35.5" fill="#FFA8A8" stroke="#FC6B6B" stroke-width="5"/>
<circle cx="289" cy="180" r="24.5" fill="#FFA8A8" stroke="#FC6B6B" stroke-width="5"/>
<circle cx="289" cy="180" r="13.5" fill="#FFA8A8" stroke="#FC6B6B" stroke-width="5"/>
<circle cx="365" cy="180" r="35.5" fill="#FFA8A8" stroke="#FC6B6B" stroke-width="5"/>
<circle cx="365" cy="180" r="24.5" fill="#FFA8A8" stroke="#FC6B6B" stroke-width="5"/>
<circle cx="365" cy="180" r="13.5" fill="#FFA8A8" stroke="#FC6B6B" stroke-width="5"/>
<circle cx="441" cy="180" r="35.5" fill="#FFA8A8" stroke="#FC6B6B" stroke-width="5"/>
<circle cx="441" cy="180" r="24.5" fill="#FFA8A8" stroke="#FC6B6B" stroke-width="5"/>
<circle cx="441" cy="180" r="13.5" fill="#FFA8A8" stroke="#FC6B6B" stroke-width="5"/>
<circle cx="23" cy="202" r="35.5" fill="#FFA8A8" stroke="#FC6B6B" stroke-width="5"/>
<circle cx="23" cy="202" r="24.5" fill="#FFA8A8" stroke="#FC6B6B" stroke-width="5"/>
<circle cx="23" cy="202" r="13.5" fill="#FFA8A8" stroke="#FC6B6B" stroke-width="5"/>
<circle cx="99" cy="202" r="35.5" fill="#FFA8A8" stroke="#FC6B6B" stroke-width="5"/>
<circle cx="99" cy="202" r="24.5" fill="#FFA8A8" stroke="#FC6B6B" stroke-width="5"/>
<circle cx="99" cy="202" r="13.5" fill="#FFA8A8" stroke="#FC6B6B" stroke-width="5"/>
<circle cx="175" cy="202" r="35.5" fill="#FFA8A8" stroke="#FC6B6B" stroke-width="5"/>
<circle cx="175" cy="202" r="24.5" fill="#FFA8A8" stroke="#FC6B6B" stroke-width="5"/>
<circle cx="175" cy="202" r="13.5" fill="#FFA8A8" stroke="#FC6B6B" stroke-width="5"/>
<circle cx="251" cy="202" r="35.5" fill="#FFA8A8" stroke="#FC6B6B" stroke-width="5"/>
<circle cx="251" cy="202" r="24.5" fill="#FFA8A8" stroke="#FC6B6B" stroke-width="5"/>
<circle cx="251" cy="202" r="13.5" fill="#FFA8A8" stroke="#FC6B6B" stroke-width="5"/>
<circle cx="327" cy="202" r="35.5" fill="#FFA8A8" stroke="#FC6B6B" stroke-width="5"/>
<circle cx="327" cy="202" r="24.5" fill="#FFA8A8" stroke="#FC6B6B" stroke-width="5"/>
<circle cx="327" cy="202" r="13.5" fill="#FFA8A8" stroke="#FC6B6B" stroke-width="5"/>
<circle cx="403" cy="202" r="35.5" fill="#FFA8A8" stroke="#FC6B6B" stroke-width="5"/>
<circle cx="403" cy="202" r="24.5" fill="#FFA8A8" stroke="#FC6B6B" stroke-width="5"/>
<circle cx="403" cy="202" r="13.5" fill="#FFA8A8" stroke="#FC6B6B" stroke-width="5"/>
<circle cx="-15" cy="224" r="35.5" fill="#FFA8A8" stroke="#FC6B6B" stroke-width="5"/>
<circle cx="-15" cy="224" r="24.5" fill="#FFA8A8" stroke="#FC6B6B" stroke-width="5"/>
<circle cx="-15" cy="224" r="13.5" fill="#FFA8A8" stroke="#FC6B6B" stroke-width="5"/>
<circle cx="137" cy="224" r="35.5" fill="#FFA8A8" stroke="#FC6B6B" stroke-width="5"/>
<circle cx="137" cy="224" r="24.5" fill="#FFA8A8" stroke="#FC6B6B" stroke-width="5"/>
<circle cx="137" cy="224" r="13.5" fill="#FFA8A8" stroke="#FC6B6B" stroke-width="5"/>
<circle cx="289" cy="224" r="35.5" fill="#FFA8A8" stroke="#FC6B6B" stroke-width="5"/>
<circle cx="289" cy="224" r="24.5" fill="#FFA8A8" stroke="#FC6B6B" stroke-width="5"/>
<circle cx="289" cy="224" r="13.5" fill="#FFA8A8" stroke="#FC6B6B" stroke-width="5"/>
<path d="M96.5 224C96.5 243.606 80.6061 259.5 61 259.5C41.3939 259.5 25.5 243.606 25.5 224C25.5 204.394 41.3939 188.5 61 188.5C80.6061 188.5 96.5 204.394 96.5 224ZM85.5 224C85.5 237.531 74.531 248.5 61 248.5C47.469 248.5 36.5 237.531 36.5 224C36.5 210.469 47.469 199.5 61 199.5C74.531 199.5 85.5 210.469 85.5 224ZM61 253.5C77.2924 253.5 90.5 240.292 90.5 224C90.5 207.708 77.2924 194.5 61 194.5C44.7076 194.5 31.5 207.708 31.5 224C31.5 240.292 44.7076 253.5 61 253.5ZM74.5 224C74.5 231.456 68.4558 237.5 61 237.5C53.5442 237.5 47.5 231.456 47.5 224C47.5 216.544 53.5442 210.5 61 210.5C68.4558 210.5 74.5 216.544 74.5 224ZM61 242.5C71.2173 242.5 79.5 234.217 79.5 224C79.5 213.783 71.2173 205.5 61 205.5C50.7827 205.5 42.5 213.783 42.5 224C42.5 234.217 50.7827 242.5 61 242.5ZM248.5 224C248.5 243.606 232.606 259.5 213 259.5C193.394 259.5 177.5 243.606 177.5 224C177.5 204.394 193.394 188.5 213 188.5C232.606 188.5 248.5 204.394 248.5 224ZM237.5 224C237.5 237.531 226.531 248.5 213 248.5C199.469 248.5 188.5 237.531 188.5 224C188.5 210.469 199.469 199.5 213 199.5C226.531 199.5 237.5 210.469 237.5 224ZM213 253.5C229.292 253.5 242.5 240.292 242.5 224C242.5 207.708 229.292 194.5 213 194.5C196.708 194.5 183.5 207.708 183.5 224C183.5 240.292 196.708 253.5 213 253.5ZM226.5 224C226.5 231.456 220.456 237.5 213 237.5C205.544 237.5 199.5 231.456 199.5 224C199.5 216.544 205.544 210.5 213 210.5C220.456 210.5 226.5 216.544 226.5 224ZM213 242.5C223.217 242.5 231.5 234.217 231.5 224C231.5 213.783 223.217 205.5 213 205.5C202.783 205.5 194.5 213.783 194.5 224C194.5 234.217 202.783 242.5 213 242.5ZM400.5 224C400.5 243.606 384.606 259.5 365 259.5C345.394 259.5 329.5 243.606 329.5 224C329.5 204.394 345.394 188.5 365 188.5C384.606 188.5 400.5 204.394 400.5 224ZM389.5 224C389.5 237.531 378.531 248.5 365 248.5C351.469 248.5 340.5 237.531 340.5 224C340.5 210.469 351.469 199.5 365 199.5C378.531 199.5 389.5 210.469 389.5 224ZM365 253.5C381.292 253.5 394.5 240.292 394.5 224C394.5 207.708 381.292 194.5 365 194.5C348.708 194.5 335.5 207.708 335.5 224C335.5 240.292 348.708 253.5 365 253.5ZM378.5 224C378.5 231.456 372.456 237.5 365 237.5C357.544 237.5 351.5 231.456 351.5 224C351.5 216.544 357.544 210.5 365 210.5C372.456 210.5 378.5 216.544 378.5 224ZM365 242.5C375.217 242.5 383.5 234.217 383.5 224C383.5 213.783 375.217 205.5 365 205.5C354.783 205.5 346.5 213.783 346.5 224C346.5 234.217 354.783 242.5 365 242.5Z" fill="#FFA8A8" stroke="#FC6B6B" stroke-width="5"/>
<circle cx="441" cy="224" r="35.5" fill="#FFA8A8" stroke="#FC6B6B" stroke-width="5"/>
<circle cx="441" cy="224" r="24.5" fill="#FFA8A8" stroke="#FC6B6B" stroke-width="5"/>
<circle cx="441" cy="224" r="13.5" fill="#FFA8A8" stroke="#FC6B6B" stroke-width="5"/>
<circle cx="23" cy="245" r="35.5" fill="#FFA8A8" stroke="#FC6B6B" stroke-width="5"/>
<circle cx="23" cy="245" r="24.5" fill="#FFA8A8" stroke="#FC6B6B" stroke-width="5"/>
<circle cx="23" cy="245" r="13.5" fill="#FFA8A8" stroke="#FC6B6B" stroke-width="5"/>
<circle cx="99" cy="245" r="35.5" fill="#FFA8A8" stroke="#FC6B6B" stroke-width="5"/>
<circle cx="99" cy="245" r="24.5" fill="#FFA8A8" stroke="#FC6B6B" stroke-width="5"/>
<circle cx="99" cy="245" r="13.5" fill="#FFA8A8" stroke="#FC6B6B" stroke-width="5"/>
<circle cx="175" cy="245" r="35.5" fill="#FFA8A8" stroke="#FC6B6B" stroke-width="5"/>
<circle cx="175" cy="245" r="24.5" fill="#FFA8A8" stroke="#FC6B6B" stroke-width="5"/>
<circle cx="175" cy="245" r="13.5" fill="#FFA8A8" stroke="#FC6B6B" stroke-width="5"/>
<circle cx="251" cy="245" r="35.5" fill="#FFA8A8" stroke="#FC6B6B" stroke-width="5"/>
<circle cx="251" cy="245" r="24.5" fill="#FFA8A8" stroke="#FC6B6B" stroke-width="5"/>
<circle cx="251" cy="245" r="13.5" fill="#FFA8A8" stroke="#FC6B6B" stroke-width="5"/>
<circle cx="327" cy="245" r="35.5" fill="#FFA8A8" stroke="#FC6B6B" stroke-width="5"/>
<circle cx="327" cy="245" r="24.5" fill="#FFA8A8" stroke="#FC6B6B" stroke-width="5"/>
<circle cx="327" cy="245" r="13.5" fill="#FFA8A8" stroke="#FC6B6B" stroke-width="5"/>
<circle cx="403" cy="245" r="35.5" fill="#FFA8A8" stroke="#FC6B6B" stroke-width="5"/>
<circle cx="403" cy="245" r="24.5" fill="#FFA8A8" stroke="#FC6B6B" stroke-width="5"/>
<circle cx="403" cy="245" r="13.5" fill="#FFA8A8" stroke="#FC6B6B" stroke-width="5"/>
<circle cx="-15" cy="267" r="35.5" fill="#FFA8A8" stroke="#FC6B6B" stroke-width="5"/>
<circle cx="-15" cy="267" r="24.5" fill="#FFA8A8" stroke="#FC6B6B" stroke-width="5"/>
<circle cx="-15" cy="267" r="13.5" fill="#FFA8A8" stroke="#FC6B6B" stroke-width="5"/>
<circle cx="61" cy="267" r="35.5" fill="#FFA8A8" stroke="#FC6B6B" stroke-width="5"/>
<circle cx="61" cy="267" r="24.5" fill="#FFA8A8" stroke="#FC6B6B" stroke-width="5"/>
<circle cx="61" cy="267" r="13.5" fill="#FFA8A8" stroke="#FC6B6B" stroke-width="5"/>
<circle cx="137" cy="267" r="35.5" fill="#FFA8A8" stroke="#FC6B6B" stroke-width="5"/>
<circle cx="137" cy="267" r="24.5" fill="#FFA8A8" stroke="#FC6B6B" stroke-width="5"/>
<circle cx="137" cy="267" r="13.5" fill="#FFA8A8" stroke="#FC6B6B" stroke-width="5"/>
<circle cx="213" cy="267" r="35.5" fill="#FFA8A8" stroke="#FC6B6B" stroke-width="5"/>
<circle cx="213" cy="267" r="24.5" fill="#FFA8A8" stroke="#FC6B6B" stroke-width="5"/>
<circle cx="213" cy="267" r="13.5" fill="#FFA8A8" stroke="#FC6B6B" stroke-width="5"/>
<circle cx="289" cy="267" r="35.5" fill="#FFA8A8" stroke="#FC6B6B" stroke-width="5"/>
<circle cx="289" cy="267" r="24.5" fill="#FFA8A8" stroke="#FC6B6B" stroke-width="5"/>
<circle cx="289" cy="267" r="13.5" fill="#FFA8A8" stroke="#FC6B6B" stroke-width="5"/>
<circle cx="365" cy="267" r="35.5" fill="#FFA8A8" stroke="#FC6B6B" stroke-width="5"/>
<circle cx="365" cy="267" r="24.5" fill="#FFA8A8" stroke="#FC6B6B" stroke-width="5"/>
<circle cx="365" cy="267" r="13.5" fill="#FFA8A8" stroke="#FC6B6B" stroke-width="5"/>
<circle cx="441" cy="267" r="35.5" fill="#FFA8A8" stroke="#FC6B6B" stroke-width="5"/>
<circle cx="441" cy="267" r="24.5" fill="#FFA8A8" stroke="#FC6B6B" stroke-width="5"/>
<circle cx="441" cy="267" r="13.5" fill="#FFA8A8" stroke="#FC6B6B" stroke-width="5"/>
<circle cx="23" cy="289" r="35.5" fill="#FFA8A8" stroke="#FC6B6B" stroke-width="5"/>
<circle cx="23" cy="289" r="24.5" fill="#FFA8A8" stroke="#FC6B6B" stroke-width="5"/>
<circle cx="23" cy="289" r="13.5" fill="#FFA8A8" stroke="#FC6B6B" stroke-width="5"/>
<circle cx="99" cy="289" r="35.5" fill="#FFA8A8" stroke="#FC6B6B" stroke-width="5"/>
<circle cx="99" cy="289" r="24.5" fill="#FFA8A8" stroke="#FC6B6B" stroke-width="5"/>
<circle cx="99" cy="289" r="13.5" fill="#FFA8A8" stroke="#FC6B6B" stroke-width="5"/>
<circle cx="175" cy="289" r="35.5" fill="#FFA8A8" stroke="#FC6B6B" stroke-width="5"/>
<circle cx="175" cy="289" r="24.5" fill="#FFA8A8" stroke="#FC6B6B" stroke-width="5"/>
<circle cx="175" cy="289" r="13.5" fill="#FFA8A8" stroke="#FC6B6B" stroke-width="5"/>
<circle cx="251" cy="289" r="35.5" fill="#FFA8A8" stroke="#FC6B6B" stroke-width="5"/>
<circle cx="251" cy="289" r="24.5" fill="#FFA8A8" stroke="#FC6B6B" stroke-width="5"/>
<circle cx="251" cy="289" r="13.5" fill="#FFA8A8" stroke="#FC6B6B" stroke-width="5"/>
<circle cx="327" cy="289" r="35.5" fill="#FFA8A8" stroke="#FC6B6B" stroke-width="5"/>
<circle cx="327" cy="289" r="24.5" fill="#FFA8A8" stroke="#FC6B6B" stroke-width="5"/>
<circle cx="327" cy="289" r="13.5" fill="#FFA8A8" stroke="#FC6B6B" stroke-width="5"/>
<circle cx="403" cy="289" r="35.5" fill="#FFA8A8" stroke="#FC6B6B" stroke-width="5"/>
<circle cx="403" cy="289" r="24.5" fill="#FFA8A8" stroke="#FC6B6B" stroke-width="5"/>
<circle cx="403" cy="289" r="13.5" fill="#FFA8A8" stroke="#FC6B6B" stroke-width="5"/>
<circle cx="-15" cy="311" r="35.5" fill="#FFA8A8" stroke="#FC6B6B" stroke-width="5"/>
<circle cx="-15" cy="311" r="24.5" fill="#FFA8A8" stroke="#FC6B6B" stroke-width="5"/>
<circle cx="-15" cy="311" r="13.5" fill="#FFA8A8" stroke="#FC6B6B" stroke-width="5"/>
<circle cx="61" cy="311" r="35.5" fill="#FFA8A8" stroke="#FC6B6B" stroke-width="5"/>
<circle cx="61" cy="311" r="24.5" fill="#FFA8A8" stroke="#FC6B6B" stroke-width="5"/>
<circle cx="61" cy="311" r="13.5" fill="#FFA8A8" stroke="#FC6B6B" stroke-width="5"/>
<circle cx="213" cy="311" r="35.5" fill="#FFA8A8" stroke="#FC6B6B" stroke-width="5"/>
<circle cx="213" cy="311" r="24.5" fill="#FFA8A8" stroke="#FC6B6B" stroke-width="5"/>
<circle cx="213" cy="311" r="13.5" fill="#FFA8A8" stroke="#FC6B6B" stroke-width="5"/>
<path d="M172.5 311C172.5 330.606 156.606 346.5 137 346.5C117.394 346.5 101.5 330.606 101.5 311C101.5 291.394 117.394 275.5 137 275.5C156.606 275.5 172.5 291.394 172.5 311ZM161.5 311C161.5 324.531 150.531 335.5 137 335.5C123.469 335.5 112.5 324.531 112.5 311C112.5 297.469 123.469 286.5 137 286.5C150.531 286.5 161.5 297.469 161.5 311ZM137 340.5C153.292 340.5 166.5 327.292 166.5 311C166.5 294.708 153.292 281.5 137 281.5C120.708 281.5 107.5 294.708 107.5 311C107.5 327.292 120.708 340.5 137 340.5ZM150.5 311C150.5 318.456 144.456 324.5 137 324.5C129.544 324.5 123.5 318.456 123.5 311C123.5 303.544 129.544 297.5 137 297.5C144.456 297.5 150.5 303.544 150.5 311ZM137 329.5C147.217 329.5 155.5 321.217 155.5 311C155.5 300.783 147.217 292.5 137 292.5C126.783 292.5 118.5 300.783 118.5 311C118.5 321.217 126.783 329.5 137 329.5ZM324.5 311C324.5 330.606 308.606 346.5 289 346.5C269.394 346.5 253.5 330.606 253.5 311C253.5 291.394 269.394 275.5 289 275.5C308.606 275.5 324.5 291.394 324.5 311ZM313.5 311C313.5 324.531 302.531 335.5 289 335.5C275.469 335.5 264.5 324.531 264.5 311C264.5 297.469 275.469 286.5 289 286.5C302.531 286.5 313.5 297.469 313.5 311ZM289 340.5C305.292 340.5 318.5 327.292 318.5 311C318.5 294.708 305.292 281.5 289 281.5C272.708 281.5 259.5 294.708 259.5 311C259.5 327.292 272.708 340.5 289 340.5ZM302.5 311C302.5 318.456 296.456 324.5 289 324.5C281.544 324.5 275.5 318.456 275.5 311C275.5 303.544 281.544 297.5 289 297.5C296.456 297.5 302.5 303.544 302.5 311ZM289 329.5C299.217 329.5 307.5 321.217 307.5 311C307.5 300.783 299.217 292.5 289 292.5C278.783 292.5 270.5 300.783 270.5 311C270.5 321.217 278.783 329.5 289 329.5Z" fill="#FFA8A8" stroke="#FC6B6B" stroke-width="5"/>
<circle cx="365" cy="311" r="35.5" fill="#FFA8A8" stroke="#FC6B6B" stroke-width="5"/>
<circle cx="365" cy="311" r="24.5" fill="#FFA8A8" stroke="#FC6B6B" stroke-width="5"/>
<circle cx="365" cy="311" r="13.5" fill="#FFA8A8" stroke="#FC6B6B" stroke-width="5"/>
<circle cx="441" cy="311" r="35.5" fill="#FFA8A8" stroke="#FC6B6B" stroke-width="5"/>
<circle cx="441" cy="311" r="24.5" fill="#FFA8A8" stroke="#FC6B6B" stroke-width="5"/>
<circle cx="441" cy="311" r="13.5" fill="#FFA8A8" stroke="#FC6B6B" stroke-width="5"/>
<circle cx="23" cy="332" r="35.5" fill="#FFA8A8" stroke="#FC6B6B" stroke-width="5"/>
<circle cx="23" cy="332" r="24.5" fill="#FFA8A8" stroke="#FC6B6B" stroke-width="5"/>
<circle cx="23" cy="332" r="13.5" fill="#FFA8A8" stroke="#FC6B6B" stroke-width="5"/>
<circle cx="99" cy="332" r="35.5" fill="#FFA8A8" stroke="#FC6B6B" stroke-width="5"/>
<circle cx="99" cy="332" r="24.5" fill="#FFA8A8" stroke="#FC6B6B" stroke-width="5"/>
<circle cx="99" cy="332" r="13.5" fill="#FFA8A8" stroke="#FC6B6B" stroke-width="5"/>
<circle cx="175" cy="332" r="35.5" fill="#FFA8A8" stroke="#FC6B6B" stroke-width="5"/>
<circle cx="175" cy="332" r="24.5" fill="#FFA8A8" stroke="#FC6B6B" stroke-width="5"/>
<circle cx="175" cy="332" r="13.5" fill="#FFA8A8" stroke="#FC6B6B" stroke-width="5"/>
<circle cx="251" cy="332" r="35.5" fill="#FFA8A8" stroke="#FC6B6B" stroke-width="5"/>
<circle cx="251" cy="332" r="24.5" fill="#FFA8A8" stroke="#FC6B6B" stroke-width="5"/>
<circle cx="251" cy="332" r="13.5" fill="#FFA8A8" stroke="#FC6B6B" stroke-width="5"/>
<circle cx="327" cy="332" r="35.5" fill="#FFA8A8" stroke="#FC6B6B" stroke-width="5"/>
<circle cx="327" cy="332" r="24.5" fill="#FFA8A8" stroke="#FC6B6B" stroke-width="5"/>
<circle cx="327" cy="332" r="13.5" fill="#FFA8A8" stroke="#FC6B6B" stroke-width="5"/>
<circle cx="403" cy="332" r="35.5" fill="#FFA8A8" stroke="#FC6B6B" stroke-width="5"/>
<circle cx="403" cy="332" r="24.5" fill="#FFA8A8" stroke="#FC6B6B" stroke-width="5"/>
<circle cx="403" cy="332" r="13.5" fill="#FFA8A8" stroke="#FC6B6B" stroke-width="5"/>
<circle cx="-15" cy="354" r="35.5" fill="#FFA8A8" stroke="#FC6B6B" stroke-width="5"/>
<circle cx="-15" cy="354" r="24.5" fill="#FFA8A8" stroke="#FC6B6B" stroke-width="5"/>
<circle cx="-15" cy="354" r="13.5" fill="#FFA8A8" stroke="#FC6B6B" stroke-width="5"/>
<circle cx="61" cy="354" r="35.5" fill="#FFA8A8" stroke="#FC6B6B" stroke-width="5"/>
<circle cx="61" cy="354" r="24.5" fill="#FFA8A8" stroke="#FC6B6B" stroke-width="5"/>
<circle cx="61" cy="354" r="13.5" fill="#FFA8A8" stroke="#FC6B6B" stroke-width="5"/>
<circle cx="137" cy="354" r="35.5" fill="#FFA8A8" stroke="#FC6B6B" stroke-width="5"/>
<circle cx="137" cy="354" r="24.5" fill="#FFA8A8" stroke="#FC6B6B" stroke-width="5"/>
<circle cx="137" cy="354" r="13.5" fill="#FFA8A8" stroke="#FC6B6B" stroke-width="5"/>
<circle cx="213" cy="354" r="35.5" fill="#FFA8A8" stroke="#FC6B6B" stroke-width="5"/>
<circle cx="213" cy="354" r="24.5" fill="#FFA8A8" stroke="#FC6B6B" stroke-width="5"/>
<circle cx="213" cy="354" r="13.5" fill="#FFA8A8" stroke="#FC6B6B" stroke-width="5"/>
<circle cx="289" cy="354" r="35.5" fill="#FFA8A8" stroke="#FC6B6B" stroke-width="5"/>
<circle cx="289" cy="354" r="24.5" fill="#FFA8A8" stroke="#FC6B6B" stroke-width="5"/>
<circle cx="289" cy="354" r="13.5" fill="#FFA8A8" stroke="#FC6B6B" stroke-width="5"/>
<circle cx="365" cy="354" r="35.5" fill="#FFA8A8" stroke="#FC6B6B" stroke-width="5"/>
<circle cx="365" cy="354" r="24.5" fill="#FFA8A8" stroke="#FC6B6B" stroke-width="5"/>
<circle cx="365" cy="354" r="13.5" fill="#FFA8A8" stroke="#FC6B6B" stroke-width="5"/>
<circle cx="441" cy="354" r="35.5" fill="#FFA8A8" stroke="#FC6B6B" stroke-width="5"/>
<circle cx="441" cy="354" r="24.5" fill="#FFA8A8" stroke="#FC6B6B" stroke-width="5"/>
<circle cx="441" cy="354" r="13.5" fill="#FFA8A8" stroke="#FC6B6B" stroke-width="5"/>
<circle cx="23" cy="376" r="35.5" fill="#FFA8A8" stroke="#FC6B6B" stroke-width="5"/>
<circle cx="23" cy="376" r="24.5" fill="#FFA8A8" stroke="#FC6B6B" stroke-width="5"/>
<circle cx="23" cy="376" r="13.5" fill="#FFA8A8" stroke="#FC6B6B" stroke-width="5"/>
<circle cx="99" cy="376" r="35.5" fill="#FFA8A8" stroke="#FC6B6B" stroke-width="5"/>
<circle cx="99" cy="376" r="24.5" fill="#FFA8A8" stroke="#FC6B6B" stroke-width="5"/>
<circle cx="99" cy="376" r="13.5" fill="#FFA8A8" stroke="#FC6B6B" stroke-width="5"/>
<circle cx="175" cy="376" r="35.5" fill="#FFA8A8" stroke="#FC6B6B" stroke-width="5"/>
<circle cx="175" cy="376" r="24.5" fill="#FFA8A8" stroke="#FC6B6B" stroke-width="5"/>
<circle cx="175" cy="376" r="13.5" fill="#FFA8A8" stroke="#FC6B6B" stroke-width="5"/>
<circle cx="251" cy="376" r="35.5" fill="#FFA8A8" stroke="#FC6B6B" stroke-width="5"/>
<circle cx="251" cy="376" r="24.5" fill="#FFA8A8" stroke="#FC6B6B" stroke-width="5"/>
<circle cx="251" cy="376" r="13.5" fill="#FFA8A8" stroke="#FC6B6B" stroke-width="5"/>
<circle cx="327" cy="376" r="35.5" fill="#FFA8A8" stroke="#FC6B6B" stroke-width="5"/>
<circle cx="327" cy="376" r="24.5" fill="#FFA8A8" stroke="#FC6B6B" stroke-width="5"/>
<circle cx="327" cy="376" r="13.5" fill="#FFA8A8" stroke="#FC6B6B" stroke-width="5"/>
<circle cx="403" cy="376" r="35.5" fill="#FFA8A8" stroke="#FC6B6B" stroke-width="5"/>
<circle cx="403" cy="376" r="24.5" fill="#FFA8A8" stroke="#FC6B6B" stroke-width="5"/>
<circle cx="403" cy="376" r="13.5" fill="#FFA8A8" stroke="#FC6B6B" stroke-width="5"/>
<circle cx="-15" cy="398" r="35.5" fill="#FFA8A8" stroke="#FC6B6B" stroke-width="5"/>
<circle cx="-15" cy="398" r="24.5" fill="#FFA8A8" stroke="#FC6B6B" stroke-width="5"/>
<circle cx="-15" cy="398" r="13.5" fill="#FFA8A8" stroke="#FC6B6B" stroke-width="5"/>
<circle cx="137" cy="398" r="35.5" fill="#FFA8A8" stroke="#FC6B6B" stroke-width="5"/>
<circle cx="137" cy="398" r="24.5" fill="#FFA8A8" stroke="#FC6B6B" stroke-width="5"/>
<circle cx="137" cy="398" r="13.5" fill="#FFA8A8" stroke="#FC6B6B" stroke-width="5"/>
<circle cx="289" cy="398" r="35.5" fill="#FFA8A8" stroke="#FC6B6B" stroke-width="5"/>
<circle cx="289" cy="398" r="24.5" fill="#FFA8A8" stroke="#FC6B6B" stroke-width="5"/>
<circle cx="289" cy="398" r="13.5" fill="#FFA8A8" stroke="#FC6B6B" stroke-width="5"/>
<path d="M96.5 398C96.5 417.606 80.6061 433.5 61 433.5C41.3939 433.5 25.5 417.606 25.5 398C25.5 378.394 41.3939 362.5 61 362.5C80.6061 362.5 96.5 378.394 96.5 398ZM85.5 398C85.5 411.531 74.531 422.5 61 422.5C47.469 422.5 36.5 411.531 36.5 398C36.5 384.469 47.469 373.5 61 373.5C74.531 373.5 85.5 384.469 85.5 398ZM61 427.5C77.2924 427.5 90.5 414.292 90.5 398C90.5 381.708 77.2924 368.5 61 368.5C44.7076 368.5 31.5 381.708 31.5 398C31.5 414.292 44.7076 427.5 61 427.5ZM74.5 398C74.5 405.456 68.4558 411.5 61 411.5C53.5442 411.5 47.5 405.456 47.5 398C47.5 390.544 53.5442 384.5 61 384.5C68.4558 384.5 74.5 390.544 74.5 398ZM61 416.5C71.2173 416.5 79.5 408.217 79.5 398C79.5 387.783 71.2173 379.5 61 379.5C50.7827 379.5 42.5 387.783 42.5 398C42.5 408.217 50.7827 416.5 61 416.5ZM248.5 398C248.5 417.606 232.606 433.5 213 433.5C193.394 433.5 177.5 417.606 177.5 398C177.5 378.394 193.394 362.5 213 362.5C232.606 362.5 248.5 378.394 248.5 398ZM237.5 398C237.5 411.531 226.531 422.5 213 422.5C199.469 422.5 188.5 411.531 188.5 398C188.5 384.469 199.469 373.5 213 373.5C226.531 373.5 237.5 384.469 237.5 398ZM213 427.5C229.292 427.5 242.5 414.292 242.5 398C242.5 381.708 229.292 368.5 213 368.5C196.708 368.5 183.5 381.708 183.5 398C183.5 414.292 196.708 427.5 213 427.5ZM226.5 398C226.5 405.456 220.456 411.5 213 411.5C205.544 411.5 199.5 405.456 199.5 398C199.5 390.544 205.544 384.5 213 384.5C220.456 384.5 226.5 390.544 226.5 398ZM213 416.5C223.217 416.5 231.5 408.217 231.5 398C231.5 387.783 223.217 379.5 213 379.5C202.783 379.5 194.5 387.783 194.5 398C194.5 408.217 202.783 416.5 213 416.5ZM400.5 398C400.5 417.606 384.606 433.5 365 433.5C345.394 433.5 329.5 417.606 329.5 398C329.5 378.394 345.394 362.5 365 362.5C384.606 362.5 400.5 378.394 400.5 398ZM389.5 398C389.5 411.531 378.531 422.5 365 422.5C351.469 422.5 340.5 411.531 340.5 398C340.5 384.469 351.469 373.5 365 373.5C378.531 373.5 389.5 384.469 389.5 398ZM365 427.5C381.292 427.5 394.5 414.292 394.5 398C394.5 381.708 381.292 368.5 365 368.5C348.708 368.5 335.5 381.708 335.5 398C335.5 414.292 348.708 427.5 365 427.5ZM378.5 398C378.5 405.456 372.456 411.5 365 411.5C357.544 411.5 351.5 405.456 351.5 398C351.5 390.544 357.544 384.5 365 384.5C372.456 384.5 378.5 390.544 378.5 398ZM365 416.5C375.217 416.5 383.5 408.217 383.5 398C383.5 387.783 375.217 379.5 365 379.5C354.783 379.5 346.5 387.783 346.5 398C346.5 408.217 354.783 416.5 365 416.5Z" fill="#FFA8A8" stroke="#FC6B6B" stroke-width="5"/>
<circle cx="441" cy="398" r="35.5" fill="#FFA8A8" stroke="#FC6B6B" stroke-width="5"/>
<circle cx="441" cy="398" r="24.5" fill="#FFA8A8" stroke="#FC6B6B" stroke-width="5"/>
<circle cx="441" cy="398" r="13.5" fill="#FFA8A8" stroke="#FC6B6B" stroke-width="5"/>
<circle cx="23" cy="419" r="35.5" fill="#FFA8A8" stroke="#FC6B6B" stroke-width="5"/>
<circle cx="23" cy="419" r="24.5" fill="#FFA8A8" stroke="#FC6B6B" stroke-width="5"/>
<circle cx="23" cy="419" r="13.5" fill="#FFA8A8" stroke="#FC6B6B" stroke-width="5"/>
<circle cx="99" cy="419" r="35.5" fill="#FFA8A8" stroke="#FC6B6B" stroke-width="5"/>
<circle cx="99" cy="419" r="24.5" fill="#FFA8A8" stroke="#FC6B6B" stroke-width="5"/>
<circle cx="99" cy="419" r="13.5" fill="#FFA8A8" stroke="#FC6B6B" stroke-width="5"/>
<circle cx="175" cy="419" r="35.5" fill="#FFA8A8" stroke="#FC6B6B" stroke-width="5"/>
<circle cx="175" cy="419" r="24.5" fill="#FFA8A8" stroke="#FC6B6B" stroke-width="5"/>
<circle cx="175" cy="419" r="13.5" fill="#FFA8A8" stroke="#FC6B6B" stroke-width="5"/>
<circle cx="251" cy="419" r="35.5" fill="#FFA8A8" stroke="#FC6B6B" stroke-width="5"/>
<circle cx="251" cy="419" r="24.5" fill="#FFA8A8" stroke="#FC6B6B" stroke-width="5"/>
<circle cx="251" cy="419" r="13.5" fill="#FFA8A8" stroke="#FC6B6B" stroke-width="5"/>
<circle cx="327" cy="419" r="35.5" fill="#FFA8A8" stroke="#FC6B6B" stroke-width="5"/>
<circle cx="327" cy="419" r="24.5" fill="#FFA8A8" stroke="#FC6B6B" stroke-width="5"/>
<circle cx="327" cy="419" r="13.5" fill="#FFA8A8" stroke="#FC6B6B" stroke-width="5"/>
<circle cx="403" cy="419" r="35.5" fill="#FFA8A8" stroke="#FC6B6B" stroke-width="5"/>
<circle cx="403" cy="419" r="24.5" fill="#FFA8A8" stroke="#FC6B6B" stroke-width="5"/>
<circle cx="403" cy="419" r="13.5" fill="#FFA8A8" stroke="#FC6B6B" stroke-width="5"/>
<circle cx="-15" cy="441" r="35.5" fill="#FFA8A8" stroke="#FC6B6B" stroke-width="5"/>
<circle cx="-15" cy="441" r="24.5" fill="#FFA8A8" stroke="#FC6B6B" stroke-width="5"/>
<circle cx="-15" cy="441" r="13.5" fill="#FFA8A8" stroke="#FC6B6B" stroke-width="5"/>
<circle cx="61" cy="441" r="35.5" fill="#FFA8A8" stroke="#FC6B6B" stroke-width="5"/>
<circle cx="61" cy="441" r="24.5" fill="#FFA8A8" stroke="#FC6B6B" stroke-width="5"/>
<circle cx="61" cy="441" r="13.5" fill="#FFA8A8" stroke="#FC6B6B" stroke-width="5"/>
<circle cx="137" cy="441" r="35.5" fill="#FFA8A8" stroke="#FC6B6B" stroke-width="5"/>
<circle cx="137" cy="441" r="24.5" fill="#FFA8A8" stroke="#FC6B6B" stroke-width="5"/>
<circle cx="137" cy="441" r="13.5" fill="#FFA8A8" stroke="#FC6B6B" stroke-width="5"/>
<circle cx="213" cy="441" r="35.5" fill="#FFA8A8" stroke="#FC6B6B" stroke-width="5"/>
<circle cx="213" cy="441" r="24.5" fill="#FFA8A8" stroke="#FC6B6B" stroke-width="5"/>
<circle cx="213" cy="441" r="13.5" fill="#FFA8A8" stroke="#FC6B6B" stroke-width="5"/>
<circle cx="289" cy="441" r="35.5" fill="#FFA8A8" stroke="#FC6B6B" stroke-width="5"/>
<circle cx="289" cy="441" r="24.5" fill="#FFA8A8" stroke="#FC6B6B" stroke-width="5"/>
<circle cx="289" cy="441" r="13.5" fill="#FFA8A8" stroke="#FC6B6B" stroke-width="5"/>
<circle cx="365" cy="441" r="35.5" fill="#FFA8A8" stroke="#FC6B6B" stroke-width="5"/>
<circle cx="365" cy="441" r="24.5" fill="#FFA8A8" stroke="#FC6B6B" stroke-width="5"/>
<circle cx="365" cy="441" r="13.5" fill="#FFA8A8" stroke="#FC6B6B" stroke-width="5"/>
<circle cx="441" cy="441" r="35.5" fill="#FFA8A8" stroke="#FC6B6B" stroke-width="5"/>
<circle cx="441" cy="441" r="24.5" fill="#FFA8A8" stroke="#FC6B6B" stroke-width="5"/>
<circle cx="441" cy="441" r="13.5" fill="#FFA8A8" stroke="#FC6B6B" stroke-width="5"/>
</g>
<defs>
<clipPath id="clip0_1_4427">
<rect width="425.197" height="425.197" fill="white"/>
</clipPath>
</defs>
</svg>
