<svg width="16" height="16" viewBox="0 0 16 16" fill="none" xmlns="http://www.w3.org/2000/svg">
<g id="devicon:javascript" clip-path="url(#clip0_17_18)">
<path id="Vector" d="M0.175995 0.176025H15.824V15.8242H0.175995V0.176025Z" fill="#F0DB4F"/>
<path id="Vector_2" d="M14.5434 12.092C14.4288 11.3781 13.9633 10.7785 12.5844 10.2194C12.1054 9.99923 11.5714 9.84161 11.4123 9.47861C11.3558 9.26736 11.3483 9.14836 11.384 9.02048C11.4866 8.60548 11.982 8.47611 12.3746 8.59511C12.6275 8.67986 12.8669 8.87473 13.0113 9.18561C13.6865 8.74836 13.6851 8.75123 14.1566 8.45073C13.984 8.18311 13.8919 8.05961 13.7789 7.94511C13.3728 7.49148 12.8194 7.25786 11.9344 7.27573L11.4734 7.33536C11.0316 7.44698 10.6106 7.67886 10.3638 7.98973C9.62301 8.83023 9.83426 10.3012 10.7356 10.9066C11.6236 11.5731 12.9281 11.7247 13.0948 12.348C13.2569 13.111 12.534 13.358 11.8155 13.2702C11.286 13.1601 10.9915 12.891 10.6731 12.4016C10.0871 12.7407 10.0871 12.7407 9.48463 13.0872C9.62751 13.3996 9.77763 13.541 10.0171 13.8116C11.1506 14.9614 13.9871 14.9049 14.4959 13.1646C14.5165 13.1049 14.6535 12.7064 14.5434 12.092ZM8.68276 7.36786H7.21913L7.21313 11.1519C7.21313 11.9566 7.25476 12.6944 7.12388 12.9205C6.90976 13.3652 6.35488 13.3101 6.10201 13.2239C5.84463 13.0974 5.71376 12.9175 5.56213 12.6632C5.52051 12.5902 5.48926 12.5337 5.47876 12.5294L4.28876 13.2581C4.48663 13.6642 4.77813 14.0167 5.15151 14.2457C5.70926 14.5805 6.45888 14.6831 7.24288 14.5031C7.75313 14.3545 8.19338 14.0466 8.42388 13.578C8.75713 12.9636 8.68563 12.22 8.68263 11.3975C8.69013 10.0556 8.68276 8.71398 8.68276 7.36786Z" fill="#323330"/>
</g>
<defs>
<clipPath id="clip0_17_18">
<rect width="16" height="16" fill="white"/>
</clipPath>
</defs>
</svg>
