<svg width="16" height="16" viewBox="0 0 16 16" fill="none" xmlns="http://www.w3.org/2000/svg">
<path d="M2.37962 14.2345L1.129 0.207642H14.871L13.619 14.2324L7.99162 15.7924L2.37962 14.2345Z" fill="#E44D26"/>
<path d="M8 14.6L12.5472 13.3392L13.6171 1.35449H8V14.6Z" fill="#F16529"/>
<path d="M8 6.55689H5.7235L5.56625 4.79514H8V3.07489H3.68613L3.72738 3.53639L4.15013 8.27727H8V6.55689ZM8 11.0248L7.99238 11.0269L6.0765 10.5094L5.95413 9.13752H4.227L4.468 11.8386L7.99213 12.8169L8 12.8148V11.0248Z" fill="#EBEBEB"/>
<path d="M7.994 6.55689V8.27727H10.1124L9.91275 10.5084L7.994 11.0263V12.8161L11.5209 11.8386L11.5468 11.548L11.951 7.01889L11.9929 6.55689H11.5294H7.994ZM7.994 3.07489V4.79514H12.1495L12.184 4.40864L12.2625 3.53639L12.3036 3.07489H7.994Z" fill="white"/>
</svg>
