<svg width="16" height="16" viewBox="0 0 16 16" fill="none" xmlns="http://www.w3.org/2000/svg">
<g clip-path="url(#clip0_20_107)">
<path d="M5.32257 10.9315C5.24757 10.4421 5.04132 10.0446 4.5407 9.85238C4.34476 9.77738 4.17507 9.6405 3.98195 9.55425C3.76257 9.45581 3.53945 9.36206 3.30788 9.30113C3.13257 9.25425 2.96945 9.333 2.86538 9.48675C2.76695 9.63113 2.8382 9.76706 2.9207 9.888C3.01351 10.0239 3.11663 10.1533 3.2207 10.2808C3.3932 10.4927 3.57601 10.6961 3.74382 10.9108C3.90413 11.1162 4.04101 11.344 4.01757 11.6158C3.96601 12.2121 3.69601 12.7062 3.26101 13.1083C3.2132 13.1515 3.12882 13.1824 3.06695 13.1768C2.78945 13.1468 2.53726 13.0418 2.33382 12.8477C2.10038 12.6255 2.13601 12.364 2.41538 12.2018C2.48195 12.1633 2.55132 12.1277 2.61226 12.0808C2.78288 11.9524 2.84007 11.733 2.74726 11.5427C2.7032 11.4508 2.65351 11.3515 2.58038 11.2849C2.2232 10.9596 1.87254 10.6239 1.49004 10.3277C0.562821 9.60769 0.0866019 8.65522 0.0134456 7.50206C-0.0690544 6.22141 0.228133 5.0261 0.904071 3.932C1.16001 3.51669 1.45813 3.12103 1.91563 2.91575C2.22688 2.77606 2.56813 2.69731 2.90098 2.61013C3.81695 2.36919 4.74129 2.18825 5.69476 2.3495C6.51601 2.48731 7.11698 2.91013 7.3926 3.71731C7.57354 4.24513 7.61666 4.79075 7.56041 5.34953C7.44979 6.44738 6.63885 7.42894 5.58132 7.71956C5.12288 7.84519 4.87257 7.77488 4.59695 7.39331C4.39913 7.11863 4.23507 6.81956 4.05788 6.52985C4.03163 6.48672 4.01288 6.43703 3.99038 6.3911C3.96882 6.34516 3.94538 6.3011 3.92288 6.25516C3.98945 6.73141 4.10007 7.18988 4.35976 7.5986C4.50038 7.82078 4.68788 7.98485 4.96257 8.00922C5.9732 8.10016 6.82635 7.76828 7.43198 6.95544C8.10979 6.04603 8.25888 4.99978 8.06291 3.89822C8.02448 3.68072 7.95979 3.46791 7.91385 3.25135C7.88291 3.11166 7.93823 3.00853 8.07604 2.95978C8.13979 2.93822 8.20542 2.92041 8.26917 2.90728C9.09607 2.72916 9.93232 2.6701 10.7751 2.75541C11.7314 2.85103 12.6361 3.11353 13.4452 3.64513C14.7118 4.47856 15.4964 5.66453 15.923 7.09894C15.9849 7.30706 15.9943 7.53488 15.9999 7.75428C16.0036 7.90053 15.9099 7.93897 15.7983 7.8471C15.6755 7.74678 15.563 7.63241 15.4571 7.51428C15.3586 7.40272 15.2799 7.27522 15.1843 7.15803C15.1102 7.06616 15.0455 7.08022 15.0099 7.1946C14.9874 7.26397 14.9677 7.33241 14.948 7.40178C14.7268 8.19116 14.378 8.91116 13.8127 9.51775C13.7339 9.60306 13.6636 9.72963 13.6543 9.84213C13.6299 10.1534 13.6121 10.4712 13.6421 10.7815C13.7039 11.4481 13.8005 12.1118 13.8755 12.7775C13.9177 13.1534 13.7968 13.3747 13.4433 13.505C13.1949 13.5959 12.9286 13.6625 12.6661 13.6813C12.248 13.7103 11.8261 13.6897 11.4061 13.6897C11.3949 13.2209 11.4352 12.7606 10.9946 12.5093C11.0799 12.1615 11.1783 11.8315 11.2374 11.494C11.2861 11.2137 11.2449 10.9381 11.048 10.7084C10.8633 10.4918 10.6318 10.4328 10.4199 10.5565C9.78141 10.9287 9.11763 10.9306 8.4417 10.6868C8.13138 10.5743 7.91482 10.6381 7.74323 10.9212C7.55854 11.2259 7.48073 11.5681 7.50135 11.9141C7.5276 12.35 7.60354 12.7813 7.66166 13.2153C7.69354 13.4581 7.66635 13.5209 7.42541 13.5828C6.8901 13.7188 6.34541 13.7338 5.79788 13.6897C5.76882 13.6869 5.73976 13.6747 5.72101 13.67C5.69382 13.2153 5.74163 12.7428 5.19976 12.5009C5.43976 11.9918 5.40695 11.464 5.32445 10.9362L5.32257 10.9315V10.9315ZM2.08629 9.14741C2.16598 9.07241 2.22973 8.95522 2.25223 8.84741C2.30848 8.57741 2.10598 8.21553 1.8716 8.11522C1.74691 8.06085 1.63816 8.08053 1.55004 8.17991C1.33535 8.42272 1.12348 8.66835 0.912508 8.91494C0.876883 8.95713 0.845008 9.00681 0.819696 9.0565C0.735321 9.21869 0.785008 9.33681 0.965008 9.38088C1.07376 9.40806 1.18626 9.41369 1.29782 9.42963C1.58845 9.4015 1.8697 9.35275 2.08626 9.14838L2.08629 9.14741ZM2.11066 6.44831C2.10973 6.25519 1.94848 6.09394 1.75816 6.093C1.56223 6.09206 1.39348 6.26738 1.40004 6.4605C1.40848 6.65456 1.56973 6.81019 1.76285 6.80644C1.95785 6.80363 2.11348 6.64425 2.1116 6.44925L2.11066 6.44831Z" fill="black"/>
</g>
<defs>
<clipPath id="clip0_20_107">
<rect width="16" height="16" fill="white"/>
</clipPath>
</defs>
</svg>
