<svg width="76" height="74" viewBox="0 0 76 74" fill="none" xmlns="http://www.w3.org/2000/svg">
<g clip-path="url(#clip0_38_10)">
<path d="M63.3828 0H12.6172C5.64891 0 0 5.63226 0 12.58V61.3016C0 68.2494 5.64891 73.8816 12.6172 73.8816H63.3828C70.3511 73.8816 76 68.2494 76 61.3016V12.58C76 5.63226 70.3511 0 63.3828 0Z" fill="#001E36"/>
<path d="M39.9128 52.2171H19.8254C19.4851 52.2171 19.3152 52.0306 19.3156 51.6576V19.3791C19.3067 19.317 19.3124 19.2536 19.3323 19.1941C19.3522 19.1345 19.3857 19.0804 19.4302 19.036C19.4747 18.9916 19.529 18.9581 19.5887 18.9383C19.6484 18.9184 19.712 18.9127 19.7743 18.9215H25.9944C26.0429 18.9147 26.0923 18.9192 26.1387 18.9347C26.1852 18.9502 26.2274 18.9762 26.262 19.0108C26.2966 19.0453 26.3227 19.0874 26.3382 19.1337C26.3536 19.18 26.3581 19.2293 26.3513 19.2776V45.8125H40.9833C41.2891 45.8125 41.4082 45.965 41.3405 46.2699L40.4225 51.7598C40.4204 51.8347 40.4008 51.9081 40.3655 51.9743C40.3301 52.0404 40.2798 52.0975 40.2186 52.141C40.124 52.1899 40.0193 52.2161 39.9128 52.2174M44.9597 26.9532H50.5169C50.8268 26.9562 51.0976 27.1634 51.1795 27.4617C51.3009 27.6844 51.387 27.9244 51.4348 28.1733C51.5057 28.5007 51.5565 28.8311 51.5874 29.1646C51.6211 29.5204 51.6381 29.9016 51.6385 30.3084C52.5914 29.2018 53.7407 28.2799 55.0288 27.5887C56.4757 26.8086 58.1003 26.4146 59.7449 26.445C59.8073 26.4361 59.8708 26.4418 59.9305 26.4617C59.9903 26.4816 60.0445 26.515 60.089 26.5594C60.1335 26.6038 60.1671 26.658 60.1869 26.7175C60.2068 26.7771 60.2125 26.8404 60.2036 26.9026V33.0535C60.2036 33.2908 60.0337 33.4094 59.6939 33.4092C57.6401 33.2825 55.5859 33.6486 53.7032 34.4766C53.0636 34.7529 52.4837 35.1499 51.9953 35.6458V51.7601C51.9953 52.0649 51.8594 52.2174 51.5874 52.2174H45.4184C45.3491 52.2273 45.2785 52.221 45.2121 52.1989C45.1457 52.1769 45.0854 52.1397 45.036 52.0904C44.9865 52.0411 44.9492 51.981 44.9271 51.9148C44.905 51.8486 44.8987 51.7782 44.9086 51.7091V34.2224C44.9086 33.7967 44.9058 33.357 44.9003 32.9031L44.8899 32.2122C44.8879 32.0952 44.8857 31.9774 44.8831 31.8588C44.8701 31.2407 44.8525 30.6228 44.8302 30.005L44.8065 29.3934C44.784 28.695 44.7159 27.9989 44.6028 27.3093C44.5909 27.2632 44.5904 27.2149 44.6014 27.1686C44.6124 27.1223 44.6347 27.0794 44.6661 27.0436C44.6976 27.0078 44.7373 26.9802 44.7819 26.9632C44.8265 26.9462 44.8746 26.9403 44.922 26.9461L44.9597 26.9532Z" fill="#31A8FF"/>
</g>
<defs>
<clipPath id="clip0_38_10">
<rect width="76" height="74" fill="white"/>
</clipPath>
</defs>
</svg>
