<svg width="1920" height="928" viewBox="0 0 1920 928" fill="none" xmlns="http://www.w3.org/2000/svg">
<g filter="url(#filter0_d_95_4101)">
<path d="M-23.8023 59.4131C-0.137905 33.7138 56.5286 -10.0471 93.8794 20.5032C140.568 58.6911 65.1884 111.104 49.9757 153.735C34.763 196.366 17.0547 279.539 95.3664 334.699C173.678 389.859 285.975 269.375 337.693 283.906C389.411 298.437 397.069 386.312 471.273 407.161C545.477 428.01 633.805 182.719 746.235 214.309C858.665 245.898 860.699 319.253 808.858 374.236C757.018 429.219 745.664 449.482 680.95 446.664C616.237 443.847 559.582 449.764 545.051 501.482C530.52 553.2 535.588 586.972 606.044 606.768C676.5 626.564 716.627 558.585 787.083 578.381C857.539 598.178 899.112 689.111 960.574 706.38C1022.04 723.649 1057.96 696.541 1099.45 646.737C1140.94 596.933 1152.23 513.573 1101.93 456.579C1051.63 399.585 1004.91 355.729 1018.39 307.759C1031.87 259.789 1085.17 245.652 1155.63 265.448C1226.09 285.244 1258.38 383.277 1301.44 422.871C1344.5 462.465 1424.82 487.458 1428.54 554.817C1432.26 622.175 1390 789.836 1485.94 816.792C1581.88 843.748 1664.34 820.821 1698.67 698.647C1733 576.472 1661.63 568.551 1597.92 550.65C1534.21 532.75 1514.49 522.355 1522.49 493.873C1530.49 465.391 1600.22 464.764 1621.83 442.532C1643.44 420.299 1683.62 389.537 1736.26 418.074C1788.89 446.61 1809.27 532.398 1813.04 611.092C1816.8 689.785 1823.97 788.036 1839.6 815.88C1855.23 843.723 1927.13 898.698 1966.85 909.86" stroke="#C4B43F" stroke-width="20"/>
</g>
<defs>
<filter id="filter0_d_95_4101" x="-35.1587" y="0.0678711" width="2008.71" height="927.419" filterUnits="userSpaceOnUse" color-interpolation-filters="sRGB">
<feFlood flood-opacity="0" result="BackgroundImageFix"/>
<feColorMatrix in="SourceAlpha" type="matrix" values="0 0 0 0 0 0 0 0 0 0 0 0 0 0 0 0 0 0 127 0" result="hardAlpha"/>
<feOffset dy="4"/>
<feGaussianBlur stdDeviation="2"/>
<feComposite in2="hardAlpha" operator="out"/>
<feColorMatrix type="matrix" values="0 0 0 0 0 0 0 0 0 0 0 0 0 0 0 0 0 0 0.25 0"/>
<feBlend mode="normal" in2="BackgroundImageFix" result="effect1_dropShadow_95_4101"/>
<feBlend mode="normal" in="SourceGraphic" in2="effect1_dropShadow_95_4101" result="shape"/>
</filter>
</defs>
</svg>
