<svg width="72" height="82" viewBox="0 0 72 82" fill="none" xmlns="http://www.w3.org/2000/svg">
<path d="M63.0617 15.9657C63.0051 15.5536 62.6446 15.3255 62.3467 15.3004C60.1499 15.1351 57.953 14.9711 55.756 14.8084C55.756 14.8084 51.3852 10.4628 50.9055 9.98177C50.4255 9.50106 49.488 9.64727 49.1241 9.75454C49.0706 9.77034 48.1692 10.0489 46.6782 10.511C45.2182 6.30346 42.6414 2.43687 38.1083 2.43687C37.9832 2.43687 37.8543 2.44195 37.7255 2.44929C36.4363 0.741816 34.8393 0 33.4599 0C22.9001 0 17.8551 13.2203 16.2733 19.9384C12.1701 21.2118 9.25508 22.117 8.88275 22.2341C6.59237 22.9537 6.51993 23.0259 6.21919 25.1873C5.99286 26.8236 0 73.2376 0 73.2376L46.6976 82L72 76.5182C72 76.5182 63.1175 16.3778 63.0617 15.9657ZM44.0972 11.3104L40.1458 12.5352C40.1473 12.2563 40.1487 11.982 40.1487 11.6819C40.1487 9.06692 39.7862 6.96144 39.2047 5.29235C41.5405 5.58592 43.0961 8.24748 44.0972 11.3104ZM36.3072 5.81089C36.9566 7.44046 37.3789 9.7791 37.3789 12.9349C37.3789 13.0964 37.3774 13.244 37.376 13.3933C34.8063 14.1905 32.014 15.0559 29.2154 15.9242C30.7868 9.85079 33.7322 6.9174 36.3072 5.81089ZM33.1699 2.83657C33.6256 2.83657 34.0848 2.99154 34.5242 3.29442C31.1399 4.88927 27.5124 8.90602 25.9805 16.9274L19.5299 18.9282C21.3242 12.8099 25.5851 2.83657 33.1699 2.83657Z" fill="#95BF46"/>
<path d="M62.4612 15.6033C60.2904 15.4387 58.1196 15.2755 55.9487 15.1135C55.9487 15.1135 51.6297 10.7876 51.1557 10.3088C50.9783 10.1307 50.7391 10.0393 50.489 10L47 82L72 76.5437C72 76.5437 63.2229 16.6759 63.1678 16.2656C63.1118 15.8554 62.7556 15.6283 62.4612 15.6033Z" fill="#5E8E3E"/>
<path d="M40 28.2364L36.8875 37.6206C36.8875 37.6206 34.1606 36.1454 30.8178 36.1454C25.9172 36.1454 25.6706 39.2626 25.6706 40.0481C25.6706 44.3341 36.6932 45.9763 36.6932 56.0155C36.6932 63.914 31.7508 69 25.0866 69C17.0896 69 13 63.9553 13 63.9553L15.1412 56.7844C15.1412 56.7844 19.345 60.4426 22.8922 60.4426C25.21 60.4426 26.1529 58.5928 26.1529 57.2413C26.1529 51.6506 17.1099 51.4012 17.1099 42.2144C17.1099 34.4824 22.5852 27 33.6375 27C37.8961 27 40 28.2364 40 28.2364Z" fill="white"/>
</svg>
