<svg width="92" height="56" viewBox="0 0 92 56" fill="none" xmlns="http://www.w3.org/2000/svg">
<path d="M46 0C33.7331 0 26.0691 6.22012 23 18.6655C27.5986 12.4446 32.9669 10.1119 39.0986 11.6673C42.5996 12.5525 45.1016 15.1281 47.8723 17.9822C52.3818 22.625 57.6013 28 69 28C81.2662 28 88.9309 21.7792 92 9.3309C87.4 15.5549 82.0336 17.8888 75.9007 16.3327C72.4004 15.4467 69.9013 12.8719 67.1269 10.0178C62.6204 5.37497 57.4022 0 46 0ZM23 28C10.7338 28 3.06906 34.2208 0 46.6691C4.59952 40.4451 9.96571 38.1112 16.0986 39.6673C19.5996 40.5533 22.1016 43.1281 24.8723 45.9822C29.3818 50.625 34.6013 56 46 56C58.2662 56 65.9309 49.7799 69 37.3345C64.4 43.5556 59.0336 45.8884 52.9007 44.3327C49.4004 43.4475 46.9013 40.8719 44.1269 38.0178C39.6204 33.375 34.4023 28 23 28Z" fill="#38BDF8"/>
</svg>
