<svg width="1470" height="1632" viewBox="0 0 1470 1632" fill="none" xmlns="http://www.w3.org/2000/svg">
<g filter="url(#filter0_b_4_17)">
<path d="M528.5 267.256C528.5 124.939 417.118 7.5137 275 0.000102041C123.121 0.000128597 -0.000222613 123.122 -0.000196058 275L8.35199e-05 1874C0.000112489 2039.69 134.315 2174 300 2174L474.112 2174C523.92 2174 572.944 2161.6 616.761 2137.92L1312.15 1762.05C1409.09 1709.65 1469.5 1608.33 1469.5 1498.13L1469.5 1278.5C1469.5 1112.81 1335.19 978.5 1169.5 978.5L828.5 978.5C662.815 978.5 528.5 844.185 528.5 678.5L528.5 267.256Z" fill="url(#paint0_linear_4_17)" fill-opacity="0.7"/>
<path d="M524 267.256C524 127.372 414.553 11.9465 274.881 4.50013C125.542 4.56438 4.49978 125.647 4.4998 275L4.50008 1874C4.50011 2037.2 136.8 2169.5 300 2169.5L474.112 2169.5C523.172 2169.5 571.461 2157.28 614.621 2133.96L1310.01 1758.09C1405.49 1706.48 1465 1606.68 1465 1498.13L1465 1278.5C1465 1115.3 1332.7 983 1169.5 983L828.5 983C660.329 983 524 846.671 524 678.5L524 267.256Z" stroke="url(#paint1_linear_4_17)" stroke-opacity="0.6" stroke-width="9"/>
</g>
<defs>
<filter id="filter0_b_4_17" x="-83.0002" y="-82.9999" width="1635.5" height="2340" filterUnits="userSpaceOnUse" color-interpolation-filters="sRGB">
<feFlood flood-opacity="0" result="BackgroundImageFix"/>
<feGaussianBlur in="BackgroundImageFix" stdDeviation="41.5"/>
<feComposite in2="SourceAlpha" operator="in" result="effect1_backgroundBlur_4_17"/>
<feBlend mode="normal" in="SourceGraphic" in2="effect1_backgroundBlur_4_17" result="shape"/>
</filter>
<linearGradient id="paint0_linear_4_17" x1="381.5" y1="189.902" x2="1441" y2="2020" gradientUnits="userSpaceOnUse">
<stop stop-color="#003BAE" stop-opacity="0.45"/>
<stop offset="0.281306" stop-color="#B4ADFF"/>
<stop offset="0.9997" stop-color="#FFF9C8" stop-opacity="0.09"/>
<stop offset="0.9998" stop-color="#D6F4FF"/>
<stop offset="0.9999" stop-color="#3D3318"/>
</linearGradient>
<linearGradient id="paint1_linear_4_17" x1="1916" y1="381.5" x2="25.9998" y2="607.5" gradientUnits="userSpaceOnUse">
<stop offset="0.1461" stop-color="#6DA8FF"/>
<stop offset="1" stop-color="#FFD233" stop-opacity="0"/>
</linearGradient>
</defs>
</svg>
