<svg width="854" height="1710" viewBox="0 0 854 1710" fill="none" xmlns="http://www.w3.org/2000/svg">
<g filter="url(#filter0_b_14_10)">
<path d="M-300.279 278.434C-272.083 -91.9973 271.084 -91.9979 299.28 278.433C310.546 426.436 428.167 544.056 576.17 555.314C946.512 583.484 946.512 1126.52 576.17 1154.69C428.167 1165.95 310.546 1283.57 299.28 1431.57C271.084 1802 -272.083 1802 -300.279 1431.57C-311.544 1283.57 -429.166 1165.95 -577.169 1154.69C-947.511 1126.52 -947.511 583.485 -577.169 555.314C-429.166 544.056 -311.544 426.436 -300.279 278.434Z" fill="url(#paint0_linear_14_10)" fill-opacity="0.7"/>
<path d="M-295.792 278.775C-268.018 -86.1113 267.019 -86.1117 294.793 278.775C306.227 428.993 425.61 548.374 575.829 559.801C940.626 587.55 940.626 1122.45 575.829 1150.2C425.61 1161.63 306.227 1281.01 294.793 1431.23C267.019 1796.11 -268.018 1796.11 -295.792 1431.23C-307.226 1281.01 -426.608 1161.63 -576.827 1150.2C-941.624 1122.45 -941.624 587.55 -576.828 559.801C-426.608 548.374 -307.226 428.993 -295.792 278.775Z" stroke="url(#paint1_linear_14_10)" stroke-opacity="0.6" stroke-width="9"/>
</g>
<defs>
<filter id="filter0_b_14_10" x="-974.925" y="-119.39" width="1948.85" height="1948.78" filterUnits="userSpaceOnUse" color-interpolation-filters="sRGB">
<feFlood flood-opacity="0" result="BackgroundImageFix"/>
<feGaussianBlur in="BackgroundImageFix" stdDeviation="60"/>
<feComposite in2="SourceAlpha" operator="in" result="effect1_backgroundBlur_14_10"/>
<feBlend mode="normal" in="SourceGraphic" in2="effect1_backgroundBlur_14_10" result="shape"/>
</filter>
<linearGradient id="paint0_linear_14_10" x1="-0.999788" y1="59.0004" x2="-0.999448" y2="1835.5" gradientUnits="userSpaceOnUse">
<stop stop-color="white"/>
<stop offset="0.473671" stop-color="#FF7171"/>
<stop offset="1" stop-color="#04D2FF" stop-opacity="0"/>
</linearGradient>
<linearGradient id="paint1_linear_14_10" x1="270.001" y1="93.501" x2="656.001" y2="1214" gradientUnits="userSpaceOnUse">
<stop stop-color="#AF0000"/>
<stop offset="1" stop-color="white" stop-opacity="0"/>
</linearGradient>
</defs>
</svg>
